<svg viewBox="0 0 600 400" xmlns="http://www.w3.org/2000/svg"><rect width="600" height="400" fill="#f9f9f9"/><text x="300" y="25" font-size="16" font-weight="bold" fill="#333" text-anchor="middle">Water Treatment Process</text><rect x="50" y="100" width="80" height="60" fill="#e0e0e0" stroke="#333" stroke-width="1.5" rx="3"/><text x="90" y="135" font-size="11" font-weight="bold" fill="#333" text-anchor="middle">Intake</text><path d="M 130 130 L 150 130" stroke="#333" stroke-width="1.5"/><rect x="150" y="100" width="80" height="60" fill="#d0d0d0" stroke="#333" stroke-width="1.5" rx="3"/><text x="190" y="135" font-size="11" font-weight="bold" fill="#333" text-anchor="middle">Screening</text><path d="M 230 130 L 250 130" stroke="#333" stroke-width="1.5"/><rect x="250" y="100" width="80" height="60" fill="#c0c0c0" stroke="#333" stroke-width="1.5" rx="3"/><text x="290" y="135" font-size="11" font-weight="bold" fill="#333" text-anchor="middle">Coagulation</text><path d="M 330 130 L 350 130" stroke="#333" stroke-width="1.5"/><rect x="350" y="100" width="80" height="60" fill="#b0b0b0" stroke="#333" stroke-width="1.5" rx="3"/><text x="390" y="135" font-size="11" font-weight="bold" fill="#333" text-anchor="middle">Settling</text><path d="M 430 130 L 450 130" stroke="#333" stroke-width="1.5"/><rect x="450" y="100" width="80" height="60" fill="#a0a0a0" stroke="#333" stroke-width="1.5" rx="3"/><text x="490" y="135" font-size="11" font-weight="bold" fill="#333" text-anchor="middle">Filtration</text><path d="M 490 160 L 490 220" stroke="#333" stroke-width="1.5"/><rect x="420" y="220" width="140" height="60" fill="#999" stroke="#333" stroke-width="1.5" rx="3"/><text x="490" y="250" font-size="11" font-weight="bold" fill="white" text-anchor="middle">Distribution</text></svg>